HIERARCHY
ROOT Hips
{
	OFFSET -171.749893 91.474121 45.959751
	CHANNELS 6 Xposition Yposition Zposition Zrotation Yrotation Xrotation 
	JOINT LeftUpLeg
	{
		OFFSET 0.103457 1.857826 10.548511
		CHANNELS 3 Zrotation Yrotation Xrotation
		JOINT LeftLeg
		{
			OFFSET 43.500004 -0.000023 -0.000002
			CHANNELS 3 Zrotation Yrotation Xrotation
			JOINT LeftFoot
			{
				OFFSET 42.372200 0.000019 -0.000004
				CHANNELS 3 Zrotation Yrotation Xrotation
				JOINT LeftToe
				{
					OFFSET 17.299992 -0.000002 0.000010
					CHANNELS 3 Zrotation Yrotation Xrotation
					End Site
					{
						OFFSET 0.000000 0.000000 0.000000
					}
				}
			}
		}
	}
	JOINT RightUpLeg
	{
		OFFSET 0.103460 1.857830 -10.548507
		CHANNELS 3 Zrotation Yrotation Xrotation
		JOINT RightLeg
		{
			OFFSET 43.500042 -0.000023 0.000004
			CHANNELS 3 Zrotation Yrotation Xrotation
			JOINT RightFoot
			{
				OFFSET 42.372261 -0.000004 0.000010
				CHANNELS 3 Zrotation Yrotation Xrotation
				JOINT RightToe
				{
					OFFSET 17.299994 -0.000004 0.000023
					CHANNELS 3 Zrotation Yrotation Xrotation
					End Site
					{
						OFFSET 0.000000 0.000000 0.000000
					}
				}
			}
		}
	}
	JOINT Spine
	{
		OFFSET 6.901968 -2.603732 -0.000001
		CHANNELS 3 Zrotation Yrotation Xrotation
		JOINT Spine1
		{
			OFFSET 12.588099 -0.000002 -0.000003
			CHANNELS 3 Zrotation Yrotation Xrotation
			JOINT Spine2
			{
				OFFSET 12.343203 0.000006 0.000013
				CHANNELS 3 Zrotation Yrotation Xrotation
				JOINT Neck
				{
					OFFSET 25.832897 -0.000006 -0.000003
					CHANNELS 3 Zrotation Yrotation Xrotation
					JOINT Head
					{
						OFFSET 11.766602 0.000011 -0.000001
						CHANNELS 3 Zrotation Yrotation Xrotation
						End Site
						{
							OFFSET 0.000000 0.000000 0.000000
						}
					}
				}
				JOINT LeftShoulder
				{
					OFFSET 19.745899 -1.480368 6.000101
					CHANNELS 3 Zrotation Yrotation Xrotation
					JOINT LeftArm
					{
						OFFSET 11.284125 -0.000008 -0.000014
						CHANNELS 3 Zrotation Yrotation Xrotation
						JOINT LeftForeArm
						{
							OFFSET 33.000042 0.000005 0.000034
							CHANNELS 3 Zrotation Yrotation Xrotation
							JOINT LeftHand
							{
								OFFSET 25.200005 0.000015 -0.000001
								CHANNELS 3 Zrotation Yrotation Xrotation
								End Site
								{
									OFFSET 0.000000 0.000000 0.000000
								}
							}
						}
					}
				}
				JOINT RightShoulder
				{
					OFFSET 19.746099 -1.480375 -6.000082
					CHANNELS 3 Zrotation Yrotation Xrotation
					JOINT RightArm
					{
						OFFSET 11.284144 -0.000014 -0.000017
						CHANNELS 3 Zrotation Yrotation Xrotation
						JOINT RightForeArm
						{
							OFFSET 33.000092 0.000015 0.000010
							CHANNELS 3 Zrotation Yrotation Xrotation
							JOINT RightHand
							{
								OFFSET 25.199768 0.000141 0.000429
								CHANNELS 3 Zrotation Yrotation Xrotation
								End Site
								{
									OFFSET 0.000000 0.000000 0.000000
								}
							}
						}
					}
				}
			}
		}
	}
}
MOTION
Frames: 15
Frame Time: 0.033333
-171.749893 91.474121 45.959751 89.422291 -3.408685 91.562893 169.147586 -3.390495 170.474910 -21.527269 2.370382 -9.068842 82.468578 4.629340 -7.259082 21.454553 0.003103 0.000001 170.673081 1.373994 -173.517595 -19.258502 -3.022440 10.721809 85.158402 -5.717786 8.665692 21.454560 -0.003104 -0.000019 4.961334 0.081227 -0.028828 -0.093746 0.189294 -0.051569 -0.411840 0.189097 -0.052706 10.198619 1.940997 -2.548029 -26.850370 -3.672638 -0.749980 -66.241217 -82.756894 -116.222827 7.166821 10.544480 -15.281438 -48.084740 -28.779794 2.626350 9.075348 -18.214590 7.797850 -95.722711 85.673508 86.358296 8.250249 -12.447940 22.949301 -41.277989 16.983583 -1.650949 5.511313 10.439708 -8.181318 
-171.743698 91.474823 45.956230 89.422278 -3.411923 91.556637 169.143652 -3.388204 170.481167 -21.527272 2.367721 -9.076143 82.468565 4.635052 -7.256288 21.454550 0.003090 0.000001 170.672494 1.376206 -173.511530 -19.246104 -3.022444 10.715099 85.151852 -5.713043 8.665694 21.454558 -0.003101 -0.000017 4.961324 0.081234 -0.028838 -0.093741 0.189281 -0.051559 -0.411833 0.189107 -0.052709 10.188907 1.944134 -2.553610 -26.856379 -3.671427 -0.755614 -66.233109 -82.757434 -116.222731 7.166780 10.551563 -15.281449 -48.088087 -28.777264 2.626361 9.075357 -18.212870 7.809115 -95.816503 85.668850 86.264675 8.245663 -12.471506 22.958352 -41.272849 16.983590 -1.650935 5.514291 10.410638 -8.182955 
-171.708099 91.478127 45.935421 89.422285 -3.428314 91.518067 169.124841 -3.365602 170.565588 -21.527271 2.343631 -9.148254 82.468571 4.687088 -7.247386 21.454553 0.003094 -0.000001 170.662672 1.394192 -173.469087 -19.189872 -3.022434 10.671330 85.118589 -5.682034 8.665691 21.454560 -0.003107 -0.000018 4.961331 0.081227 -0.028832 -0.093744 0.189291 -0.051566 -0.411835 0.189111 -0.052706 10.149444 1.950727 -2.587534 -26.891129 -3.653604 -0.796948 -66.250656 -82.746799 -116.206325 7.148809 10.589038 -15.281442 -48.109868 -28.754734 2.626353 9.086962 -18.199092 7.881190 -96.285115 85.650757 85.795864 8.226149 -12.575609 22.940760 -41.209270 16.983586 -1.650940 5.536377 10.272942 -8.079364 
-171.669693 91.480026 45.913311 89.422291 -3.437947 91.474067 169.109063 -3.340493 170.602949 -21.527262 2.332563 -9.197528 82.470518 4.724345 -7.234274 21.454548 0.003089 -0.000001 170.647400 1.416109 -173.481996 -19.157431 -3.016545 10.654132 85.088372 -5.668311 8.665692 21.454558 -0.003113 -0.000018 4.961336 0.081227 -0.028828 -0.090251 0.189286 -0.051567 -0.408336 0.189105 -0.052703 10.117568 1.913371 -2.612616 -26.886982 -3.604072 -0.851050 -66.521473 -82.707976 -115.939374 7.105652 10.614724 -15.286689 -48.143224 -28.720676 2.626353 9.094931 -18.187059 7.922447 -96.614214 85.653325 85.465119 8.215746 -12.649980 22.856811 -41.117151 16.983592 -1.650928 5.544225 10.172561 -7.927984 
-171.628296 91.480164 45.890739 89.426827 -3.435239 91.426563 169.102015 -3.308191 170.606979 -21.535434 2.332504 -9.231084 82.478209 4.751421 -7.218893 21.454550 0.003083 -0.000000 170.634846 1.447695 -173.533359 -19.147459 -2.998804 10.650855 85.066680 -5.664000 8.671025 21.454558 -0.003084 -0.000014 4.966665 0.081225 -0.028828 -0.079587 0.189287 -0.051561 -0.397687 0.189100 -0.052706 10.125101 1.853743 -2.633320 -26.905486 -3.544972 -0.908084 -66.785959 -82.682083 -115.677300 7.078487 10.641381 -15.290461 -48.170493 -28.689984 2.626368 9.075248 -18.163360 7.963414 -96.763147 85.671070 85.314056 8.231120 -12.722009 22.793222 -41.050769 16.983592 -1.650930 5.553170 10.096851 -7.859365 
-171.587601 91.479248 45.867020 89.434941 -3.426217 91.385459 169.097630 -3.275897 170.602047 -21.547941 2.330485 -9.255343 82.488072 4.773218 -7.199211 21.454553 0.003089 0.000001 170.625079 1.481997 -173.595815 -19.146552 -2.980144 10.650934 85.051278 -5.662623 8.679381 21.454558 -0.003114 -0.000017 4.973398 0.081230 -0.028833 -0.066097 0.189283 -0.051564 -0.384196 0.189110 -0.052704 10.172785 1.834521 -2.664911 -26.947854 -3.519067 -0.956026 -66.762162 -82.703113 -115.699047 7.092863 10.675021 -15.276002 -48.170578 -28.674408 2.626365 9.031961 -18.143757 8.060189 -96.950471 85.666814 85.126417 8.264506 -12.786312 22.733924 -41.029763 16.983588 -1.650945 5.550056 10.157353 -7.977325 
-171.550598 91.478844 45.841400 89.442017 -3.421877 91.357680 169.089229 -3.250694 170.591679 -21.552834 2.321331 -9.267083 82.490797 4.787806 -7.171940 21.454550 0.003094 -0.000001 170.611364 1.509999 -173.646768 -19.149588 -2.971132 10.652608 85.034571 -5.659675 8.690082 21.454555 -0.003104 -0.000017 4.978803 0.081222 -0.028837 -0.055301 0.189291 -0.051565 -0.373382 0.189104 -0.052714 10.243274 1.846551 -2.698632 -26.995348 -3.519926 -0.990002 -66.622177 -82.738364 -115.835487 7.125517 10.711558 -15.239325 -48.145256 -28.672881 2.626363 9.031396 -18.078688 8.098923 -97.153492 85.656207 84.923499 8.312473 -12.842110 22.705331 -41.054604 16.983595 -1.650932 5.575652 10.213909 -8.052112 
-171.515396 91.478523 45.814949 89.448970 -3.420851 91.345024 169.075486 -3.223199 170.605831 -21.554694 2.308866 -9.284220 82.490701 4.805745 -7.145361 21.454555 0.003090 -0.000002 170.592594 1.536112 -173.679116 -19.154051 -2.968514 10.655185 85.018418 -5.656099 8.699780 21.454558 -0.003101 -0.000015 4.983286 0.081223 -0.028827 -0.046341 0.185003 -0.057773 -0.364430 0.184786 -0.058892 10.322128 1.885006 -2.724749 -27.022228 -3.540740 -1.003991 -66.500757 -82.760849 -115.954646 7.153652 10.743422 -15.176370 -48.105842 -28.678141 2.626367 9.108049 -17.984421 8.065733 -97.366150 85.642704 84.710964 8.358223 -12.888377 22.712095 -41.109901 16.985232 -1.650934 5.608485 10.328270 -7.926133 
-171.483307 91.478218 45.788158 89.454352 -3.421166 91.341185 169.058875 -3.196699 170.630816 -21.555368 2.296939 -9.302521 82.488802 4.823804 -7.121098 21.454551 0.003099 -0.000001 170.571434 1.558306 -173.698213 -19.157321 -2.972202 10.657925 84.998419 -5.652896 8.714808 21.454560 -0.003118 -0.000018 4.987413 0.081234 -0.033766 -0.038075 0.179878 -0.067612 -0.356178 0.179599 -0.068693 10.406364 1.950032 -2.737440 -27.039848 -3.573834 -0.994961 -66.408966 -82.779195 -116.044572 7.184222 10.762457 -15.088291 -48.075150 -28.702019 2.626352 9.179882 -17.888819 8.045356 -97.579504 85.616660 84.499180 8.386308 -12.922921 22.760451 -41.173917 16.986873 -1.650950 5.659834 10.340618 -7.852339 
-171.455002 91.478088 45.761040 89.455425 -3.422688 91.339239 169.040693 -3.172504 170.673505 -21.556637 2.286321 -9.327276 82.486023 4.844925 -7.102186 21.454555 0.003080 -0.000001 170.551845 1.574406 -173.704852 -19.158812 -2.979974 10.660171 84.975114 -5.651028 8.731101 21.454558 -0.003112 -0.000017 4.991784 0.081225 -0.040047 -0.029339 0.174894 -0.080175 -0.347435 0.174546 -0.081235 10.489997 2.004324 -2.753151 -27.041962 -3.588216 -0.999883 -66.360745 -82.791025 -116.091687 7.208522 10.777431 -15.004186 -48.049076 -28.735460 2.626373 9.197750 -17.813794 8.044802 -97.730452 85.582257 84.350705 8.394526 -12.937112 22.756835 -41.197669 16.988079 -1.650939 5.715050 10.297350 -7.758823 
-171.431305 91.478119 45.733139 89.453560 -3.425273 91.338160 169.018495 -3.155296 170.712082 -21.559712 2.278611 -9.348862 82.483448 4.863029 -7.086554 21.454553 0.003076 -0.000002 170.531300 1.583002 -173.704101 -19.156119 -2.990288 10.661165 84.948647 -5.648644 8.746621 21.454560 -0.003100 -0.000015 4.996125 0.081223 -0.046293 -0.020607 0.169782 -0.092663 -0.338686 0.169348 -0.093673 10.567923 2.035261 -2.774175 -27.032058 -3.580049 -1.024352 -66.397813 -82.794836 -116.054217 7.220547 10.788839 -14.948412 -48.026608 -28.770683 2.626353 9.192691 -17.760814 8.002958 -97.814156 85.541788 84.270123 8.391006 -12.954339 22.741890 -41.203287 16.988822 -1.650947 5.735494 10.279862 -7.760421 
-171.413101 91.478203 45.704262 89.447242 -3.430567 91.337306 168.991297 -3.148191 170.728378 -21.567205 2.274946 -9.359054 82.480019 4.872929 -7.072420 21.454550 0.003087 -0.000001 170.508979 1.584716 -173.700084 -19.148601 -3.001420 10.660232 84.918082 -5.643322 8.766647 21.454558 -0.003108 -0.000016 5.000478 0.081226 -0.050316 -0.011962 0.162360 -0.100711 -0.330060 0.161891 -0.101695 10.645430 2.051079 -2.805439 -27.024499 -3.569627 -1.062715 -66.451115 -82.797746 -116.000832 7.226519 10.801709 -14.923955 -47.997836 -28.814246 2.626354 9.168308 -17.711830 7.845037 -97.873483 85.490896 84.214730 8.372020 -12.986988 22.739052 -41.199086 16.988438 -1.650933 5.733798 10.294432 -7.822768 
-171.400406 91.479607 45.674450 89.437755 -3.438207 91.336643 168.963498 -3.148702 170.731957 -21.569087 2.274439 -9.361029 82.472191 4.876690 -7.059324 21.454553 0.003091 -0.000001 170.487997 1.580800 -173.683460 -19.131831 -3.012412 10.654617 84.886144 -5.636434 8.771191 21.454558 -0.003102 -0.000015 5.004958 0.076444 -0.051845 -0.002988 0.152789 -0.103734 -0.321091 0.152294 -0.104658 10.702585 2.068389 -2.837228 -27.014373 -3.573396 -1.094432 -66.491707 -82.800170 -115.960165 7.220942 10.821462 -14.956936 -48.039664 -28.828702 2.626367 9.141869 -17.717996 7.864959 -98.003372 85.432669 84.089450 8.338193 -13.023881 22.762481 -41.180054 16.985390 -1.650931 5.706974 10.267101 -7.902566 
-171.392899 91.482224 45.643559 89.425980 -3.447932 91.336179 168.934183 -3.152884 170.738897 -21.567010 2.275413 -9.364103 82.459535 4.879993 -7.050468 21.454553 0.003099 0.000000 170.469364 1.573194 -173.646181 -19.104796 -3.025328 10.636876 84.852355 -5.622781 8.766027 21.454558 -0.003103 -0.000016 5.009677 0.071142 -0.053110 0.006452 0.142187 -0.105097 -0.311650 0.141671 -0.105958 10.740616 2.099754 -2.856728 -27.019258 -3.609541 -1.095185 -66.524806 -82.801400 -115.927039 7.215373 10.842519 -15.008700 -48.111870 -28.822606 2.626355 9.096567 -17.746819 8.019446 -98.194058 85.378225 83.902406 8.310301 -13.058302 22.763815 -41.129265 17.005078 -1.650939 5.576130 10.178551 -7.993780 
-171.391205 91.487007 45.611450 89.410981 -3.459916 91.335865 168.905469 -3.161894 170.753445 -21.556207 2.277330 -9.370565 82.439461 4.884501 -7.046874 21.454550 0.003089 -0.000001 170.456537 1.561497 -173.635129 -19.062937 -3.021841 10.630741 84.813437 -5.619086 8.750631 21.454562 -0.003118 -0.000018 5.014243 0.065848 -0.054347 0.015575 0.131605 -0.105164 -0.302532 0.131079 -0.105958 10.774308 2.125849 -2.863257 -27.044617 -3.663537 -1.073654 -66.556792 -82.799194 -115.894786 7.221379 10.861782 -15.080832 -48.203865 -28.782390 2.626356 9.067426 -17.720108 8.161054 -98.378411 85.337715 83.720873 8.293426 -13.091919 22.747511 -41.114614 17.003251 -1.650946 5.583941 10.176562 -7.969459 
